<mxfile host="app.diagrams.net" agent="Mozilla/5.0 (Windows NT 10.0; Win64; x64) AppleWebKit/537.36 (KHTML, like Gecko) Chrome/136.0.0.0 Safari/537.36" version="26.2.14">
  <diagram name="Página-1" id="qnDG3ExkqAhVJK6OL_K3">
    <mxGraphModel dx="2253" dy="1946" grid="1" gridSize="10" guides="1" tooltips="1" connect="1" arrows="1" fold="1" page="1" pageScale="1" pageWidth="827" pageHeight="1169" math="0" shadow="0">
      <root>
        <mxCell id="0" />
        <mxCell id="1" parent="0" />
        <mxCell id="hmDaHxg9jJgVDYujbB5x-43" style="edgeStyle=orthogonalEdgeStyle;rounded=0;orthogonalLoop=1;jettySize=auto;html=1;exitX=1;exitY=0;exitDx=0;exitDy=0;entryX=0.5;entryY=1;entryDx=0;entryDy=0;" edge="1" parent="1" source="hmDaHxg9jJgVDYujbB5x-1" target="hmDaHxg9jJgVDYujbB5x-2">
          <mxGeometry relative="1" as="geometry">
            <mxPoint x="290" y="90" as="targetPoint" />
          </mxGeometry>
        </mxCell>
        <mxCell id="hmDaHxg9jJgVDYujbB5x-61" style="edgeStyle=orthogonalEdgeStyle;rounded=0;orthogonalLoop=1;jettySize=auto;html=1;exitX=1;exitY=0;exitDx=0;exitDy=0;entryX=0.5;entryY=1;entryDx=0;entryDy=0;" edge="1" parent="1" source="hmDaHxg9jJgVDYujbB5x-1" target="hmDaHxg9jJgVDYujbB5x-4">
          <mxGeometry relative="1" as="geometry" />
        </mxCell>
        <mxCell id="hmDaHxg9jJgVDYujbB5x-113" style="edgeStyle=orthogonalEdgeStyle;rounded=0;orthogonalLoop=1;jettySize=auto;html=1;exitX=0;exitY=0;exitDx=0;exitDy=0;entryX=1;entryY=0.5;entryDx=0;entryDy=0;" edge="1" parent="1" source="hmDaHxg9jJgVDYujbB5x-1" target="hmDaHxg9jJgVDYujbB5x-7">
          <mxGeometry relative="1" as="geometry" />
        </mxCell>
        <mxCell id="hmDaHxg9jJgVDYujbB5x-156" value="" style="edgeStyle=orthogonalEdgeStyle;rounded=0;orthogonalLoop=1;jettySize=auto;html=1;" edge="1" parent="1" source="hmDaHxg9jJgVDYujbB5x-1" target="hmDaHxg9jJgVDYujbB5x-155">
          <mxGeometry relative="1" as="geometry" />
        </mxCell>
        <mxCell id="hmDaHxg9jJgVDYujbB5x-157" style="edgeStyle=orthogonalEdgeStyle;rounded=0;orthogonalLoop=1;jettySize=auto;html=1;exitX=0;exitY=0;exitDx=0;exitDy=0;entryX=0.5;entryY=1;entryDx=0;entryDy=0;" edge="1" parent="1" source="hmDaHxg9jJgVDYujbB5x-1" target="hmDaHxg9jJgVDYujbB5x-6">
          <mxGeometry relative="1" as="geometry" />
        </mxCell>
        <mxCell id="hmDaHxg9jJgVDYujbB5x-160" style="edgeStyle=orthogonalEdgeStyle;rounded=0;orthogonalLoop=1;jettySize=auto;html=1;exitX=0.5;exitY=0;exitDx=0;exitDy=0;entryX=0.5;entryY=1;entryDx=0;entryDy=0;" edge="1" parent="1" source="hmDaHxg9jJgVDYujbB5x-1" target="hmDaHxg9jJgVDYujbB5x-158">
          <mxGeometry relative="1" as="geometry" />
        </mxCell>
        <mxCell id="hmDaHxg9jJgVDYujbB5x-161" style="edgeStyle=orthogonalEdgeStyle;rounded=0;orthogonalLoop=1;jettySize=auto;html=1;exitX=0.5;exitY=0;exitDx=0;exitDy=0;entryX=0.5;entryY=1;entryDx=0;entryDy=0;" edge="1" parent="1" source="hmDaHxg9jJgVDYujbB5x-1" target="hmDaHxg9jJgVDYujbB5x-159">
          <mxGeometry relative="1" as="geometry" />
        </mxCell>
        <mxCell id="hmDaHxg9jJgVDYujbB5x-1" value="SOLDADOS" style="ellipse;whiteSpace=wrap;html=1;aspect=fixed;fillColor=#60a917;fontColor=#ffffff;strokeColor=#2D7600;" vertex="1" parent="1">
          <mxGeometry x="120" y="110" width="80" height="80" as="geometry" />
        </mxCell>
        <mxCell id="hmDaHxg9jJgVDYujbB5x-2" value="CODIGO DE SOLDADO" style="ellipse;whiteSpace=wrap;html=1;aspect=fixed;" vertex="1" parent="1">
          <mxGeometry x="380" y="-10" width="80" height="80" as="geometry" />
        </mxCell>
        <mxCell id="hmDaHxg9jJgVDYujbB5x-4" value="NOMBRE" style="ellipse;whiteSpace=wrap;html=1;aspect=fixed;" vertex="1" parent="1">
          <mxGeometry x="280" y="-10" width="80" height="80" as="geometry" />
        </mxCell>
        <mxCell id="hmDaHxg9jJgVDYujbB5x-6" value="GRADO" style="ellipse;whiteSpace=wrap;html=1;aspect=fixed;" vertex="1" parent="1">
          <mxGeometry x="-40" y="-10" width="80" height="80" as="geometry" />
        </mxCell>
        <mxCell id="hmDaHxg9jJgVDYujbB5x-7" value="APELLIDOS" style="ellipse;whiteSpace=wrap;html=1;aspect=fixed;direction=south;" vertex="1" parent="1">
          <mxGeometry x="-150" y="-10" width="80" height="80" as="geometry" />
        </mxCell>
        <mxCell id="hmDaHxg9jJgVDYujbB5x-19" style="edgeStyle=orthogonalEdgeStyle;rounded=0;orthogonalLoop=1;jettySize=auto;html=1;exitX=1;exitY=0.5;exitDx=0;exitDy=0;entryX=0;entryY=0.5;entryDx=0;entryDy=0;" edge="1" parent="1" source="hmDaHxg9jJgVDYujbB5x-11" target="hmDaHxg9jJgVDYujbB5x-13">
          <mxGeometry relative="1" as="geometry" />
        </mxCell>
        <mxCell id="hmDaHxg9jJgVDYujbB5x-36" style="edgeStyle=orthogonalEdgeStyle;rounded=0;orthogonalLoop=1;jettySize=auto;html=1;exitX=0;exitY=0.5;exitDx=0;exitDy=0;entryX=1;entryY=0.5;entryDx=0;entryDy=0;" edge="1" parent="1" source="hmDaHxg9jJgVDYujbB5x-11" target="hmDaHxg9jJgVDYujbB5x-14">
          <mxGeometry relative="1" as="geometry" />
        </mxCell>
        <mxCell id="hmDaHxg9jJgVDYujbB5x-51" style="edgeStyle=orthogonalEdgeStyle;rounded=0;orthogonalLoop=1;jettySize=auto;html=1;exitX=0.5;exitY=1;exitDx=0;exitDy=0;entryX=0.5;entryY=0;entryDx=0;entryDy=0;" edge="1" parent="1" source="hmDaHxg9jJgVDYujbB5x-11" target="hmDaHxg9jJgVDYujbB5x-15">
          <mxGeometry relative="1" as="geometry" />
        </mxCell>
        <mxCell id="hmDaHxg9jJgVDYujbB5x-11" value="CUARTELES" style="ellipse;whiteSpace=wrap;html=1;aspect=fixed;fillColor=#6a00ff;fontColor=#ffffff;strokeColor=#3700CC;" vertex="1" parent="1">
          <mxGeometry x="520" y="390" width="80" height="80" as="geometry" />
        </mxCell>
        <mxCell id="hmDaHxg9jJgVDYujbB5x-13" value="NOMBRE" style="ellipse;whiteSpace=wrap;html=1;aspect=fixed;" vertex="1" parent="1">
          <mxGeometry x="630" y="390" width="80" height="80" as="geometry" />
        </mxCell>
        <mxCell id="hmDaHxg9jJgVDYujbB5x-14" value="UBICACION" style="ellipse;whiteSpace=wrap;html=1;aspect=fixed;" vertex="1" parent="1">
          <mxGeometry x="400" y="480" width="80" height="80" as="geometry" />
        </mxCell>
        <mxCell id="hmDaHxg9jJgVDYujbB5x-15" value="CODIGO DE CUARTEL" style="ellipse;whiteSpace=wrap;html=1;aspect=fixed;" vertex="1" parent="1">
          <mxGeometry x="520" y="490" width="80" height="80" as="geometry" />
        </mxCell>
        <mxCell id="hmDaHxg9jJgVDYujbB5x-26" style="edgeStyle=orthogonalEdgeStyle;rounded=0;orthogonalLoop=1;jettySize=auto;html=1;exitX=0;exitY=0.5;exitDx=0;exitDy=0;entryX=1;entryY=0.5;entryDx=0;entryDy=0;" edge="1" parent="1" source="hmDaHxg9jJgVDYujbB5x-20" target="hmDaHxg9jJgVDYujbB5x-23">
          <mxGeometry relative="1" as="geometry" />
        </mxCell>
        <mxCell id="hmDaHxg9jJgVDYujbB5x-27" style="edgeStyle=orthogonalEdgeStyle;rounded=0;orthogonalLoop=1;jettySize=auto;html=1;exitX=1;exitY=0.5;exitDx=0;exitDy=0;entryX=0;entryY=0.5;entryDx=0;entryDy=0;" edge="1" parent="1" source="hmDaHxg9jJgVDYujbB5x-20" target="hmDaHxg9jJgVDYujbB5x-21">
          <mxGeometry relative="1" as="geometry" />
        </mxCell>
        <mxCell id="hmDaHxg9jJgVDYujbB5x-20" value="CUERPOS DE EJERCITO" style="ellipse;whiteSpace=wrap;html=1;aspect=fixed;fillColor=#ffcd28;strokeColor=#d79b00;gradientColor=#ffa500;" vertex="1" parent="1">
          <mxGeometry x="60" y="480" width="80" height="80" as="geometry" />
        </mxCell>
        <mxCell id="hmDaHxg9jJgVDYujbB5x-21" value="DENOMINACION" style="ellipse;whiteSpace=wrap;html=1;aspect=fixed;" vertex="1" parent="1">
          <mxGeometry x="170" y="470" width="100" height="100" as="geometry" />
        </mxCell>
        <mxCell id="hmDaHxg9jJgVDYujbB5x-23" value="CODIGO DE CUERPO" style="ellipse;whiteSpace=wrap;html=1;aspect=fixed;" vertex="1" parent="1">
          <mxGeometry x="-50" y="480" width="80" height="80" as="geometry" />
        </mxCell>
        <mxCell id="hmDaHxg9jJgVDYujbB5x-31" style="edgeStyle=orthogonalEdgeStyle;rounded=0;orthogonalLoop=1;jettySize=auto;html=1;exitX=0.5;exitY=0;exitDx=0;exitDy=0;entryX=0.5;entryY=1;entryDx=0;entryDy=0;" edge="1" parent="1" source="hmDaHxg9jJgVDYujbB5x-28" target="hmDaHxg9jJgVDYujbB5x-29">
          <mxGeometry relative="1" as="geometry" />
        </mxCell>
        <mxCell id="hmDaHxg9jJgVDYujbB5x-32" style="edgeStyle=orthogonalEdgeStyle;rounded=0;orthogonalLoop=1;jettySize=auto;html=1;exitX=1;exitY=0.5;exitDx=0;exitDy=0;entryX=0;entryY=0.5;entryDx=0;entryDy=0;" edge="1" parent="1" source="hmDaHxg9jJgVDYujbB5x-28" target="hmDaHxg9jJgVDYujbB5x-30">
          <mxGeometry relative="1" as="geometry" />
        </mxCell>
        <mxCell id="hmDaHxg9jJgVDYujbB5x-28" value="COMPAÑIAS" style="ellipse;whiteSpace=wrap;html=1;aspect=fixed;fillColor=#1ba1e2;fontColor=#ffffff;strokeColor=#006EAF;" vertex="1" parent="1">
          <mxGeometry x="520" y="110" width="80" height="80" as="geometry" />
        </mxCell>
        <mxCell id="hmDaHxg9jJgVDYujbB5x-29" value="NUMERO DE COMPAÑIA" style="ellipse;whiteSpace=wrap;html=1;aspect=fixed;" vertex="1" parent="1">
          <mxGeometry x="520" y="-10" width="80" height="80" as="geometry" />
        </mxCell>
        <mxCell id="hmDaHxg9jJgVDYujbB5x-30" value="ACTIVIDAD PRINCIPAL" style="ellipse;whiteSpace=wrap;html=1;aspect=fixed;" vertex="1" parent="1">
          <mxGeometry x="630" y="110" width="80" height="80" as="geometry" />
        </mxCell>
        <mxCell id="hmDaHxg9jJgVDYujbB5x-33" value="CODIGO DE SERVICO" style="ellipse;whiteSpace=wrap;html=1;aspect=fixed;" vertex="1" parent="1">
          <mxGeometry x="-320" width="80" height="80" as="geometry" />
        </mxCell>
        <mxCell id="hmDaHxg9jJgVDYujbB5x-34" value="ACTIVIDAD" style="ellipse;whiteSpace=wrap;html=1;aspect=fixed;" vertex="1" parent="1">
          <mxGeometry x="-430" y="110" width="80" height="80" as="geometry" />
        </mxCell>
        <mxCell id="hmDaHxg9jJgVDYujbB5x-37" style="edgeStyle=orthogonalEdgeStyle;rounded=0;orthogonalLoop=1;jettySize=auto;html=1;exitX=0.5;exitY=0;exitDx=0;exitDy=0;" edge="1" parent="1" source="hmDaHxg9jJgVDYujbB5x-35" target="hmDaHxg9jJgVDYujbB5x-33">
          <mxGeometry relative="1" as="geometry" />
        </mxCell>
        <mxCell id="hmDaHxg9jJgVDYujbB5x-38" style="edgeStyle=orthogonalEdgeStyle;rounded=0;orthogonalLoop=1;jettySize=auto;html=1;exitX=0;exitY=0.5;exitDx=0;exitDy=0;entryX=1;entryY=0.5;entryDx=0;entryDy=0;" edge="1" parent="1" source="hmDaHxg9jJgVDYujbB5x-35" target="hmDaHxg9jJgVDYujbB5x-34">
          <mxGeometry relative="1" as="geometry" />
        </mxCell>
        <mxCell id="hmDaHxg9jJgVDYujbB5x-35" value="SERVICIOS" style="ellipse;whiteSpace=wrap;html=1;aspect=fixed;fillColor=#e51400;fontColor=#ffffff;strokeColor=#B20000;" vertex="1" parent="1">
          <mxGeometry x="-320" y="110" width="80" height="80" as="geometry" />
        </mxCell>
        <mxCell id="hmDaHxg9jJgVDYujbB5x-48" value="" style="endArrow=classic;startArrow=classic;html=1;rounded=0;entryX=1;entryY=0.5;entryDx=0;entryDy=0;exitX=0;exitY=0.5;exitDx=0;exitDy=0;" edge="1" parent="1" source="hmDaHxg9jJgVDYujbB5x-28" target="hmDaHxg9jJgVDYujbB5x-1">
          <mxGeometry width="50" height="50" relative="1" as="geometry">
            <mxPoint x="360" y="310" as="sourcePoint" />
            <mxPoint x="360" y="110" as="targetPoint" />
          </mxGeometry>
        </mxCell>
        <mxCell id="hmDaHxg9jJgVDYujbB5x-135" value="&lt;font style=&quot;color: light-dark(rgb(0, 0, 0), rgb(255, 0, 0));&quot;&gt;UNO&lt;/font&gt;" style="edgeLabel;html=1;align=center;verticalAlign=middle;resizable=0;points=[];" vertex="1" connectable="0" parent="hmDaHxg9jJgVDYujbB5x-48">
          <mxGeometry x="0.8438" y="-1" relative="1" as="geometry">
            <mxPoint y="-9" as="offset" />
          </mxGeometry>
        </mxCell>
        <mxCell id="hmDaHxg9jJgVDYujbB5x-137" value="&lt;font style=&quot;color: light-dark(rgb(0, 0, 0), rgb(255, 0, 0));&quot;&gt;UNO&lt;/font&gt;" style="edgeLabel;html=1;align=center;verticalAlign=middle;resizable=0;points=[];" vertex="1" connectable="0" parent="hmDaHxg9jJgVDYujbB5x-48">
          <mxGeometry x="-0.7437" relative="1" as="geometry">
            <mxPoint y="-10" as="offset" />
          </mxGeometry>
        </mxCell>
        <mxCell id="hmDaHxg9jJgVDYujbB5x-52" value="" style="endArrow=classic;startArrow=classic;html=1;rounded=0;entryX=0.5;entryY=0;entryDx=0;entryDy=0;exitX=0.5;exitY=1;exitDx=0;exitDy=0;" edge="1" parent="1" source="hmDaHxg9jJgVDYujbB5x-28" target="hmDaHxg9jJgVDYujbB5x-11">
          <mxGeometry width="50" height="50" relative="1" as="geometry">
            <mxPoint x="600" y="250" as="sourcePoint" />
            <mxPoint x="280" y="250" as="targetPoint" />
          </mxGeometry>
        </mxCell>
        <mxCell id="hmDaHxg9jJgVDYujbB5x-58" value="" style="endArrow=classic;startArrow=classic;html=1;rounded=0;entryX=1;entryY=1;entryDx=0;entryDy=0;exitX=0;exitY=0;exitDx=0;exitDy=0;" edge="1" parent="1" source="hmDaHxg9jJgVDYujbB5x-11" target="hmDaHxg9jJgVDYujbB5x-1">
          <mxGeometry width="50" height="50" relative="1" as="geometry">
            <mxPoint x="510" y="280" as="sourcePoint" />
            <mxPoint x="190" y="280" as="targetPoint" />
          </mxGeometry>
        </mxCell>
        <mxCell id="hmDaHxg9jJgVDYujbB5x-138" value="&lt;font style=&quot;color: light-dark(rgb(0, 0, 0), rgb(255, 0, 0));&quot;&gt;UNO&lt;/font&gt;" style="edgeLabel;html=1;align=center;verticalAlign=middle;resizable=0;points=[];" vertex="1" connectable="0" parent="hmDaHxg9jJgVDYujbB5x-58">
          <mxGeometry x="0.8233" y="1" relative="1" as="geometry">
            <mxPoint x="12" y="-9" as="offset" />
          </mxGeometry>
        </mxCell>
        <mxCell id="hmDaHxg9jJgVDYujbB5x-139" value="&lt;font style=&quot;color: light-dark(rgb(0, 0, 0), rgb(255, 0, 0));&quot;&gt;&lt;font style=&quot;&quot;&gt;UN&lt;/font&gt;&lt;font&gt;O&lt;/font&gt;&lt;/font&gt;" style="edgeLabel;html=1;align=center;verticalAlign=middle;resizable=0;points=[];" vertex="1" connectable="0" parent="hmDaHxg9jJgVDYujbB5x-58">
          <mxGeometry x="-0.8204" y="2" relative="1" as="geometry">
            <mxPoint y="-23" as="offset" />
          </mxGeometry>
        </mxCell>
        <mxCell id="hmDaHxg9jJgVDYujbB5x-62" value="" style="endArrow=classic;startArrow=classic;html=1;rounded=0;entryX=1;entryY=0.5;entryDx=0;entryDy=0;exitX=0;exitY=0.5;exitDx=0;exitDy=0;" edge="1" parent="1" source="hmDaHxg9jJgVDYujbB5x-1" target="hmDaHxg9jJgVDYujbB5x-35">
          <mxGeometry width="50" height="50" relative="1" as="geometry">
            <mxPoint x="50" y="189" as="sourcePoint" />
            <mxPoint x="-270" y="189" as="targetPoint" />
          </mxGeometry>
        </mxCell>
        <mxCell id="hmDaHxg9jJgVDYujbB5x-83" value="" style="endArrow=classic;startArrow=classic;html=1;rounded=0;entryX=0;entryY=1;entryDx=0;entryDy=0;exitX=0.5;exitY=0;exitDx=0;exitDy=0;" edge="1" parent="1" source="hmDaHxg9jJgVDYujbB5x-20" target="hmDaHxg9jJgVDYujbB5x-1">
          <mxGeometry width="50" height="50" relative="1" as="geometry">
            <mxPoint x="130" y="340" as="sourcePoint" />
            <mxPoint x="180" y="290" as="targetPoint" />
          </mxGeometry>
        </mxCell>
        <mxCell id="hmDaHxg9jJgVDYujbB5x-140" value="&lt;font style=&quot;color: light-dark(rgb(0, 0, 0), rgb(255, 0, 0));&quot;&gt;UNO&lt;/font&gt;" style="edgeLabel;html=1;align=center;verticalAlign=middle;resizable=0;points=[];" vertex="1" connectable="0" parent="hmDaHxg9jJgVDYujbB5x-83">
          <mxGeometry x="0.82" y="1" relative="1" as="geometry">
            <mxPoint x="21" y="5" as="offset" />
          </mxGeometry>
        </mxCell>
        <mxCell id="hmDaHxg9jJgVDYujbB5x-141" value="&lt;font style=&quot;color: light-dark(rgb(0, 0, 0), rgb(255, 0, 0));&quot;&gt;VARIOS&lt;/font&gt;" style="edgeLabel;html=1;align=center;verticalAlign=middle;resizable=0;points=[];" vertex="1" connectable="0" parent="hmDaHxg9jJgVDYujbB5x-83">
          <mxGeometry x="-0.82" relative="1" as="geometry">
            <mxPoint x="-3" y="-253" as="offset" />
          </mxGeometry>
        </mxCell>
        <mxCell id="hmDaHxg9jJgVDYujbB5x-122" style="edgeStyle=orthogonalEdgeStyle;rounded=0;orthogonalLoop=1;jettySize=auto;html=1;exitX=0.5;exitY=0;exitDx=0;exitDy=0;entryX=0.5;entryY=0;entryDx=0;entryDy=0;" edge="1" parent="1" source="hmDaHxg9jJgVDYujbB5x-99" target="hmDaHxg9jJgVDYujbB5x-121">
          <mxGeometry relative="1" as="geometry" />
        </mxCell>
        <mxCell id="hmDaHxg9jJgVDYujbB5x-99" value="" style="rhombus;whiteSpace=wrap;html=1;" vertex="1" parent="1">
          <mxGeometry x="560" y="250" width="80" height="80" as="geometry" />
        </mxCell>
        <mxCell id="hmDaHxg9jJgVDYujbB5x-100" value="" style="endArrow=none;html=1;rounded=0;entryX=1;entryY=0.5;entryDx=0;entryDy=0;exitX=0;exitY=0.5;exitDx=0;exitDy=0;entryPerimeter=0;" edge="1" parent="1" source="hmDaHxg9jJgVDYujbB5x-99" target="hmDaHxg9jJgVDYujbB5x-99">
          <mxGeometry width="50" height="50" relative="1" as="geometry">
            <mxPoint x="639" y="440" as="sourcePoint" />
            <mxPoint x="639" y="360" as="targetPoint" />
          </mxGeometry>
        </mxCell>
        <mxCell id="hmDaHxg9jJgVDYujbB5x-101" value="&lt;font style=&quot;color: light-dark(rgb(0, 0, 0), rgb(255, 0, 0)); font-size: 10px;&quot;&gt;VARIOS&lt;/font&gt;" style="text;html=1;align=center;verticalAlign=middle;whiteSpace=wrap;rounded=0;" vertex="1" parent="1">
          <mxGeometry x="570" y="260" width="60" height="30" as="geometry" />
        </mxCell>
        <mxCell id="hmDaHxg9jJgVDYujbB5x-102" value="&lt;font style=&quot;color: light-dark(rgb(0, 0, 0), rgb(255, 0, 0)); font-size: 10px;&quot;&gt;VARIOS&lt;/font&gt;" style="text;html=1;align=center;verticalAlign=middle;whiteSpace=wrap;rounded=0;" vertex="1" parent="1">
          <mxGeometry x="570" y="290" width="60" height="30" as="geometry" />
        </mxCell>
        <mxCell id="hmDaHxg9jJgVDYujbB5x-109" style="edgeStyle=orthogonalEdgeStyle;rounded=0;orthogonalLoop=1;jettySize=auto;html=1;exitX=0.5;exitY=1;exitDx=0;exitDy=0;entryX=0.5;entryY=0;entryDx=0;entryDy=0;" edge="1" parent="1" source="hmDaHxg9jJgVDYujbB5x-103" target="hmDaHxg9jJgVDYujbB5x-108">
          <mxGeometry relative="1" as="geometry" />
        </mxCell>
        <mxCell id="hmDaHxg9jJgVDYujbB5x-103" value="" style="rhombus;whiteSpace=wrap;html=1;" vertex="1" parent="1">
          <mxGeometry x="-120" y="150" width="80" height="80" as="geometry" />
        </mxCell>
        <mxCell id="hmDaHxg9jJgVDYujbB5x-104" value="" style="endArrow=none;html=1;rounded=0;entryX=1;entryY=0.5;entryDx=0;entryDy=0;exitX=0;exitY=0.5;exitDx=0;exitDy=0;entryPerimeter=0;" edge="1" parent="1" source="hmDaHxg9jJgVDYujbB5x-103" target="hmDaHxg9jJgVDYujbB5x-103">
          <mxGeometry width="50" height="50" relative="1" as="geometry">
            <mxPoint x="-41" y="340" as="sourcePoint" />
            <mxPoint x="-41" y="260" as="targetPoint" />
          </mxGeometry>
        </mxCell>
        <mxCell id="hmDaHxg9jJgVDYujbB5x-105" value="&lt;font style=&quot;color: light-dark(rgb(0, 0, 0), rgb(255, 0, 0)); font-size: 10px;&quot;&gt;VARIOS&lt;/font&gt;" style="text;html=1;align=center;verticalAlign=middle;whiteSpace=wrap;rounded=0;" vertex="1" parent="1">
          <mxGeometry x="-110" y="160" width="60" height="30" as="geometry" />
        </mxCell>
        <mxCell id="hmDaHxg9jJgVDYujbB5x-106" value="&lt;font style=&quot;color: light-dark(rgb(0, 0, 0), rgb(255, 0, 0)); font-size: 10px;&quot;&gt;VARIOS&lt;/font&gt;" style="text;html=1;align=center;verticalAlign=middle;whiteSpace=wrap;rounded=0;" vertex="1" parent="1">
          <mxGeometry x="-110" y="190" width="60" height="30" as="geometry" />
        </mxCell>
        <mxCell id="hmDaHxg9jJgVDYujbB5x-108" value="SER_SOLD" style="ellipse;whiteSpace=wrap;html=1;aspect=fixed;fillColor=#f8cecc;strokeColor=#b85450;" vertex="1" parent="1">
          <mxGeometry x="-120" y="265" width="80" height="80" as="geometry" />
        </mxCell>
        <mxCell id="hmDaHxg9jJgVDYujbB5x-121" value="COMP_CUAR" style="ellipse;whiteSpace=wrap;html=1;aspect=fixed;fillColor=#f8cecc;strokeColor=#b85450;" vertex="1" parent="1">
          <mxGeometry x="670" y="250" width="80" height="80" as="geometry" />
        </mxCell>
        <mxCell id="hmDaHxg9jJgVDYujbB5x-126" value="" style="endArrow=classic;html=1;rounded=0;exitX=0;exitY=0;exitDx=0;exitDy=0;" edge="1" parent="1" source="hmDaHxg9jJgVDYujbB5x-108">
          <mxGeometry width="50" height="50" relative="1" as="geometry">
            <mxPoint x="-200" y="310" as="sourcePoint" />
            <mxPoint x="-160" y="277" as="targetPoint" />
          </mxGeometry>
        </mxCell>
        <mxCell id="hmDaHxg9jJgVDYujbB5x-127" value="ID: SER" style="text;html=1;align=center;verticalAlign=middle;whiteSpace=wrap;rounded=0;" vertex="1" parent="1">
          <mxGeometry x="-220" y="265" width="60" height="30" as="geometry" />
        </mxCell>
        <mxCell id="hmDaHxg9jJgVDYujbB5x-129" value="" style="endArrow=classic;html=1;rounded=0;exitX=0;exitY=1;exitDx=0;exitDy=0;" edge="1" parent="1" source="hmDaHxg9jJgVDYujbB5x-108">
          <mxGeometry width="50" height="50" relative="1" as="geometry">
            <mxPoint x="-200" y="380" as="sourcePoint" />
            <mxPoint x="-160" y="333" as="targetPoint" />
          </mxGeometry>
        </mxCell>
        <mxCell id="hmDaHxg9jJgVDYujbB5x-130" value="ID: SOLD" style="text;html=1;align=center;verticalAlign=middle;whiteSpace=wrap;rounded=0;" vertex="1" parent="1">
          <mxGeometry x="-220" y="320" width="60" height="30" as="geometry" />
        </mxCell>
        <mxCell id="hmDaHxg9jJgVDYujbB5x-131" value="" style="endArrow=classic;html=1;rounded=0;" edge="1" parent="1">
          <mxGeometry width="50" height="50" relative="1" as="geometry">
            <mxPoint x="740" y="265" as="sourcePoint" />
            <mxPoint x="800" y="265" as="targetPoint" />
          </mxGeometry>
        </mxCell>
        <mxCell id="hmDaHxg9jJgVDYujbB5x-132" value="" style="endArrow=classic;html=1;rounded=0;exitX=0.888;exitY=0.775;exitDx=0;exitDy=0;exitPerimeter=0;" edge="1" parent="1">
          <mxGeometry width="50" height="50" relative="1" as="geometry">
            <mxPoint x="741.04" y="314.5" as="sourcePoint" />
            <mxPoint x="800" y="314.5" as="targetPoint" />
          </mxGeometry>
        </mxCell>
        <mxCell id="hmDaHxg9jJgVDYujbB5x-133" value="ID: COMP" style="text;html=1;align=center;verticalAlign=middle;whiteSpace=wrap;rounded=0;fontStyle=1" vertex="1" parent="1">
          <mxGeometry x="810" y="250" width="60" height="30" as="geometry" />
        </mxCell>
        <mxCell id="hmDaHxg9jJgVDYujbB5x-134" value="ID: CUAR" style="text;html=1;align=center;verticalAlign=middle;whiteSpace=wrap;rounded=0;fontStyle=1" vertex="1" parent="1">
          <mxGeometry x="810" y="300" width="60" height="30" as="geometry" />
        </mxCell>
        <mxCell id="hmDaHxg9jJgVDYujbB5x-143" value="&lt;font style=&quot;color: light-dark(rgb(0, 0, 0), rgb(255, 0, 0));&quot;&gt;UNO&lt;/font&gt;" style="edgeLabel;html=1;align=center;verticalAlign=middle;resizable=0;points=[];" vertex="1" connectable="0" parent="1">
          <mxGeometry x="480" y="160" as="geometry" />
        </mxCell>
        <mxCell id="hmDaHxg9jJgVDYujbB5x-146" value="&lt;font style=&quot;color: light-dark(rgb(0, 0, 0), rgb(255, 0, 0));&quot;&gt;VARIOS&lt;/font&gt;" style="edgeLabel;html=1;align=center;verticalAlign=middle;resizable=0;points=[];" vertex="1" connectable="0" parent="1">
          <mxGeometry x="240" y="160" as="geometry">
            <mxPoint x="-8" as="offset" />
          </mxGeometry>
        </mxCell>
        <mxCell id="hmDaHxg9jJgVDYujbB5x-147" value="&lt;font style=&quot;color: light-dark(rgb(0, 0, 0), rgb(255, 0, 0));&quot;&gt;VARIOS&lt;/font&gt;" style="edgeLabel;html=1;align=center;verticalAlign=middle;resizable=0;points=[];" vertex="1" connectable="0" parent="1">
          <mxGeometry x="229.9963528651768" y="219.99933258453612" as="geometry">
            <mxPoint x="-11" y="4" as="offset" />
          </mxGeometry>
        </mxCell>
        <mxCell id="hmDaHxg9jJgVDYujbB5x-148" value="&lt;font style=&quot;color: light-dark(rgb(255, 0, 0), rgb(255, 0, 0));&quot;&gt;UNO&lt;/font&gt;" style="edgeLabel;html=1;align=center;verticalAlign=middle;resizable=0;points=[];" vertex="1" connectable="0" parent="1">
          <mxGeometry x="510.00094583642897" y="390.00483920880157" as="geometry">
            <mxPoint x="-24" as="offset" />
          </mxGeometry>
        </mxCell>
        <mxCell id="hmDaHxg9jJgVDYujbB5x-153" value="&lt;font style=&quot;color: light-dark(rgb(0, 0, 0), rgb(255, 0, 0));&quot;&gt;UNO&lt;/font&gt;" style="edgeLabel;html=1;align=center;verticalAlign=middle;resizable=0;points=[];" vertex="1" connectable="0" parent="1">
          <mxGeometry x="120" y="450" as="geometry" />
        </mxCell>
        <mxCell id="hmDaHxg9jJgVDYujbB5x-154" value="&lt;font style=&quot;color: light-dark(rgb(0, 0, 0), rgb(255, 0, 0));&quot;&gt;UNO&lt;/font&gt;" style="edgeLabel;html=1;align=center;verticalAlign=middle;resizable=0;points=[];" vertex="1" connectable="0" parent="1">
          <mxGeometry x="70" y="450" as="geometry" />
        </mxCell>
        <mxCell id="hmDaHxg9jJgVDYujbB5x-155" value="ID: CUAR" style="text;html=1;align=center;verticalAlign=middle;whiteSpace=wrap;rounded=0;fontStyle=1" vertex="1" parent="1">
          <mxGeometry x="130" width="60" height="30" as="geometry" />
        </mxCell>
        <mxCell id="hmDaHxg9jJgVDYujbB5x-158" value="ID: CUER" style="text;html=1;align=center;verticalAlign=middle;whiteSpace=wrap;rounded=0;fontStyle=1" vertex="1" parent="1">
          <mxGeometry x="50" width="60" height="30" as="geometry" />
        </mxCell>
        <mxCell id="hmDaHxg9jJgVDYujbB5x-159" value="ID: COMP" style="text;html=1;align=center;verticalAlign=middle;whiteSpace=wrap;rounded=0;fontStyle=1" vertex="1" parent="1">
          <mxGeometry x="210" width="60" height="30" as="geometry" />
        </mxCell>
      </root>
    </mxGraphModel>
  </diagram>
</mxfile>
